<svg width="788" height="620" viewBox="0 0 788 620" fill="none" xmlns="http://www.w3.org/2000/svg">
<g clip-path="url(#clip0)">
<path d="M187.536 173.312C187.216 178.688 186.928 185.056 186.672 192.416C186.48 199.776 186.384 206.048 186.384 211.232C186.384 213.728 186.64 215.424 187.152 216.32C187.728 217.216 188.784 217.664 190.32 217.664C191.152 217.664 191.888 217.632 192.528 217.568C193.232 217.504 193.68 217.44 193.872 217.376L194.352 218.144L193.488 224.288C192.592 224.224 190.8 224.16 188.112 224.096C185.488 224.032 182.608 224 179.472 224C176.976 224 174.352 224.032 171.6 224.096C168.912 224.16 167.056 224.192 166.032 224.192L166.896 217.856C168.752 217.792 170.16 217.504 171.12 216.992C172.08 216.48 172.752 215.616 173.136 214.4C173.52 213.184 173.712 211.392 173.712 209.024V196.832L163.44 196.736C162.352 196.736 160.112 196.864 156.72 197.12C153.328 197.376 151.056 197.568 149.904 197.696L149.712 211.232C149.712 213.856 149.936 215.616 150.384 216.512C150.896 217.344 151.888 217.76 153.36 217.76C154.256 217.76 155.024 217.728 155.664 217.664C156.304 217.6 156.72 217.536 156.912 217.472L157.392 218.144L156.528 224.288C155.632 224.288 154 224.224 151.632 224.096C149.328 224.032 147.056 224 144.816 224C142 224 138.768 224.096 135.12 224.288C131.472 224.544 129.616 224.736 129.552 224.864L130.224 218.624C133.04 218.048 134.896 217.248 135.792 216.224C136.688 215.136 137.136 213.248 137.136 210.56V173.6C137.136 171.616 136.912 170.304 136.464 169.664C136.016 168.96 135.088 168.608 133.68 168.608L130.8 168.704L130.32 167.936L130.992 162.272L142.512 162.368C144.496 162.368 147.12 162.272 150.384 162.08C153.712 161.888 155.92 161.76 157.008 161.696L156.528 168.128C154.864 168.384 153.648 168.736 152.88 169.184C152.112 169.568 151.568 170.176 151.248 171.008C150.992 171.84 150.832 173.152 150.768 174.944L150.192 188.672L162.48 188.864C166.384 188.864 170.128 188.64 173.712 188.192L173.808 173.6C173.808 171.616 173.584 170.304 173.136 169.664C172.688 168.96 171.76 168.608 170.352 168.608L167.376 168.704L166.896 167.936L167.568 162.272L179.856 162.368C181.712 162.368 184.272 162.272 187.536 162.08C190.8 161.888 192.944 161.76 193.968 161.696L193.488 168.032C191.12 168.352 189.552 168.864 188.784 169.568C188.08 170.208 187.664 171.456 187.536 173.312ZM250.711 211.328C251.415 213.632 252.311 215.264 253.399 216.224C254.487 217.184 256.087 217.76 258.199 217.952L258.583 218.624L257.911 224.288C257.079 224.224 255.511 224.16 253.207 224.096C250.903 224.032 248.535 224 246.103 224C242.711 224 239.383 224.096 236.119 224.288C232.855 224.544 230.775 224.704 229.879 224.768L229.399 224L229.879 218.144C232.055 217.952 233.623 217.76 234.583 217.568C235.607 217.312 236.311 216.992 236.695 216.608C237.079 216.16 237.271 215.52 237.271 214.688C237.271 213.92 237.079 212.864 236.695 211.52L234.775 204.224C233.111 204.16 230.199 204.128 226.039 204.128C223.543 204.128 220.503 204.352 216.919 204.8L214.615 212C214.231 213.344 214.039 214.336 214.039 214.976C214.039 216.064 214.359 216.832 214.999 217.28C215.639 217.664 216.791 217.856 218.455 217.856H222.487L222.967 218.528L222.295 224.576C221.399 224.512 219.447 224.384 216.439 224.192C213.495 224.064 210.775 224 208.279 224C205.591 224 203.127 224.032 200.887 224.096C198.711 224.16 197.271 224.224 196.567 224.288L197.335 217.856C198.871 217.6 200.087 217.024 200.983 216.128C201.943 215.168 202.807 213.632 203.575 211.52L220.663 162.848L235.927 161.312L236.983 161.792C237.943 165.44 239.927 172.928 242.935 184.256C246.007 195.52 248.599 204.544 250.711 211.328ZM225.943 196.544C227.991 196.544 230.359 196.416 233.047 196.16L227.479 175.04H226.135L219.223 196.544H225.943ZM274.903 162.368C277.399 162.368 280.151 162.304 283.159 162.176C286.167 162.048 288.279 161.952 289.495 161.888C297.751 161.888 303.671 163.648 307.255 167.168C310.839 170.624 312.631 175.04 312.631 180.416C312.631 184.192 311.543 187.776 309.367 191.168C307.255 194.496 304.439 197.184 300.919 199.232C297.399 201.216 293.655 202.208 289.687 202.208H281.527L281.431 209.312C281.431 211.744 281.527 213.536 281.719 214.688C281.975 215.84 282.391 216.64 282.967 217.088C283.607 217.536 284.599 217.76 285.943 217.76C286.839 217.76 287.703 217.728 288.535 217.664C289.367 217.6 289.911 217.536 290.167 217.472L290.455 218.048L289.591 224.288C288.695 224.288 287.031 224.224 284.599 224.096C282.167 224.032 279.799 224 277.495 224C275.383 224 272.471 224.096 268.759 224.288C265.111 224.48 262.679 224.64 261.463 224.768L262.231 218.24C264.855 217.792 266.615 217.024 267.511 215.936C268.407 214.848 268.855 212.96 268.855 210.272V173.792C268.855 171.744 268.631 170.368 268.183 169.664C267.799 168.96 266.999 168.608 265.783 168.608C265.079 168.608 264.407 168.64 263.767 168.704C263.127 168.768 262.711 168.8 262.519 168.8L261.943 168.032L262.807 162.272L274.903 162.368ZM290.263 194.816C296.087 193.6 298.999 189.248 298.999 181.76C298.999 177.728 297.879 174.784 295.639 172.928C293.399 171.072 289.815 170.144 284.887 170.144C283.991 170.144 283.415 170.24 283.159 170.432C282.967 170.56 282.839 171.04 282.775 171.872C282.327 180.128 282.007 187.392 281.815 193.664L290.263 194.816ZM330.309 162.368C332.805 162.368 335.557 162.304 338.565 162.176C341.573 162.048 343.685 161.952 344.901 161.888C353.157 161.888 359.077 163.648 362.661 167.168C366.245 170.624 368.037 175.04 368.037 180.416C368.037 184.192 366.949 187.776 364.773 191.168C362.661 194.496 359.845 197.184 356.325 199.232C352.805 201.216 349.061 202.208 345.093 202.208H336.933L336.837 209.312C336.837 211.744 336.933 213.536 337.125 214.688C337.381 215.84 337.797 216.64 338.373 217.088C339.013 217.536 340.005 217.76 341.349 217.76C342.245 217.76 343.109 217.728 343.941 217.664C344.773 217.6 345.317 217.536 345.573 217.472L345.861 218.048L344.997 224.288C344.101 224.288 342.437 224.224 340.005 224.096C337.573 224.032 335.205 224 332.901 224C330.789 224 327.877 224.096 324.165 224.288C320.517 224.48 318.085 224.64 316.869 224.768L317.637 218.24C320.261 217.792 322.021 217.024 322.917 215.936C323.813 214.848 324.261 212.96 324.261 210.272V173.792C324.261 171.744 324.037 170.368 323.589 169.664C323.205 168.96 322.405 168.608 321.189 168.608C320.485 168.608 319.813 168.64 319.173 168.704C318.533 168.768 318.117 168.8 317.925 168.8L317.349 168.032L318.213 162.272L330.309 162.368ZM345.669 194.816C351.493 193.6 354.405 189.248 354.405 181.76C354.405 177.728 353.285 174.784 351.045 172.928C348.805 171.072 345.221 170.144 340.293 170.144C339.397 170.144 338.821 170.24 338.565 170.432C338.373 170.56 338.245 171.04 338.181 171.872C337.733 180.128 337.413 187.392 337.221 193.664L345.669 194.816ZM390.419 171.008C390.419 172.352 393.139 178.944 398.579 190.784H399.443L407.027 174.944C407.923 173.152 408.371 171.616 408.371 170.336C408.371 169.632 407.987 169.12 407.219 168.8C406.451 168.416 405.203 168.192 403.475 168.128L403.283 167.648L403.955 162.08L408.659 162.272C412.115 162.4 414.803 162.464 416.723 162.464C418.579 162.464 420.531 162.432 422.579 162.368C424.627 162.24 425.971 162.144 426.611 162.08L426.995 162.752L426.323 168.608C423.763 169.44 421.715 170.72 420.179 172.448C418.643 174.112 416.787 176.928 414.611 180.896L405.491 198.08C404.595 199.68 404.051 201.312 403.859 202.976C403.731 204.576 403.667 207.552 403.667 211.904C403.667 214.016 403.987 215.488 404.627 216.32C405.331 217.152 406.515 217.568 408.179 217.568C409.267 217.568 410.259 217.536 411.155 217.472C412.051 217.408 412.659 217.344 412.979 217.28L413.267 217.76L412.403 224.384C411.187 224.32 408.979 224.224 405.779 224.096C402.643 224.032 399.571 224 396.563 224C394.259 224 391.443 224.128 388.115 224.384C384.787 224.704 382.611 224.928 381.587 225.056L382.259 218.432C384.819 218.112 386.675 217.664 387.827 217.088C389.043 216.512 389.843 215.648 390.227 214.496C390.675 213.344 390.899 211.648 390.899 209.408V206.528C390.899 204.864 390.707 203.328 390.323 201.92C389.939 200.512 389.203 198.784 388.115 196.736L378.707 178.4C377.171 175.328 375.667 173.12 374.195 171.776C372.787 170.368 370.675 169.376 367.859 168.8L367.571 168.32L368.339 162.176C369.299 162.176 370.995 162.24 373.427 162.368C375.923 162.432 378.355 162.464 380.723 162.464C382.835 162.464 385.651 162.368 389.171 162.176C392.691 161.92 395.027 161.76 396.179 161.696L396.659 162.56L396.083 168.128C393.971 168.192 392.499 168.448 391.667 168.896C390.835 169.344 390.419 170.048 390.419 171.008ZM143.472 323C141.168 323 138.48 323.128 135.408 323.384C132.4 323.64 130.416 323.832 129.456 323.96L130.128 317.432C132.88 316.984 134.736 316.248 135.696 315.224C136.656 314.136 137.136 312.344 137.136 309.848L137.232 272.408C137.232 270.616 137.008 269.368 136.56 268.664C136.112 267.96 135.312 267.608 134.16 267.608C133.52 267.608 132.88 267.64 132.24 267.704C131.6 267.768 131.152 267.8 130.896 267.8L130.224 267.032L131.184 261.176C132.272 261.176 134.16 261.208 136.848 261.272C139.6 261.336 142.128 261.368 144.432 261.368C146.928 261.368 149.712 261.304 152.784 261.176C155.856 261.048 158 260.952 159.216 260.888C165.872 260.888 170.928 262.168 174.384 264.728C177.84 267.224 179.568 270.904 179.568 275.768C179.568 278.968 178.64 281.816 176.784 284.312C174.992 286.744 172.496 288.792 169.296 290.456C173.392 291.544 176.656 293.272 179.088 295.64C181.584 298.008 182.832 301.048 182.832 304.76C182.832 308.6 181.776 311.96 179.664 314.84C177.616 317.72 174.704 319.96 170.928 321.56C167.152 323.16 162.768 323.96 157.776 323.96C156.304 323.96 154.224 323.8 151.536 323.48C150.768 323.416 149.488 323.32 147.696 323.192C145.904 323.064 144.496 323 143.472 323ZM150.288 287.576C151.056 287.64 152.56 287.8 154.8 288.056C157.104 288.312 158.64 288.44 159.408 288.44C159.408 288.568 160.016 288.248 161.232 287.48C162.448 286.712 163.536 285.56 164.496 284.024C165.52 282.488 166.032 280.568 166.032 278.264C166.032 275.064 164.944 272.696 162.768 271.16C160.656 269.624 157.328 268.856 152.784 268.856C152.144 268.856 151.696 268.984 151.44 269.24C151.248 269.432 151.12 269.88 151.056 270.584C150.672 275.64 150.416 281.304 150.288 287.576ZM149.712 310.04C149.712 312.088 150.416 313.56 151.824 314.456C153.232 315.288 155.536 315.704 158.736 315.704C161.872 315.704 164.304 314.872 166.032 313.208C167.76 311.48 168.624 309.112 168.624 306.104C168.624 303.544 167.792 301.4 166.128 299.672C164.464 297.944 162.064 296.728 158.928 296.024L150.096 296.12L149.712 310.04ZM211.239 272.312C210.471 287.8 210.087 300.44 210.087 310.232C210.087 312.856 210.343 314.616 210.855 315.512C211.367 316.344 212.359 316.76 213.831 316.76C214.855 316.76 215.719 316.728 216.423 316.664C217.191 316.6 217.671 316.536 217.863 316.472L218.343 317.144L217.479 323.288C216.391 323.288 214.407 323.224 211.527 323.096C208.711 323.032 205.959 323 203.271 323C200.967 323 198.375 323.096 195.495 323.288C192.615 323.544 190.727 323.736 189.831 323.864L190.503 317.624C193.319 317.048 195.175 316.216 196.071 315.128C197.031 314.04 197.511 312.184 197.511 309.56V272.6C197.511 270.616 197.287 269.304 196.839 268.664C196.391 267.96 195.463 267.608 194.055 267.608L190.791 267.704L190.311 266.936L190.983 261.272L204.327 261.368C206.119 261.368 208.583 261.272 211.719 261.08C214.919 260.888 217.031 260.76 218.055 260.696L217.479 267.128C215.047 267.448 213.415 267.96 212.583 268.664C211.815 269.304 211.367 270.52 211.239 272.312ZM245.15 309.464C245.15 311.704 245.31 313.304 245.63 314.264C245.95 315.224 246.558 315.896 247.454 316.28C248.35 316.6 249.886 316.792 252.062 316.856L252.35 317.432L251.486 323.384C250.334 323.32 248.254 323.256 245.246 323.192C242.302 323.128 239.614 323.096 237.182 323.096C234.814 323.096 232.35 323.16 229.79 323.288C227.294 323.416 225.662 323.512 224.894 323.576L225.758 317.144C228.446 316.76 230.238 316.056 231.134 315.032C232.094 313.944 232.574 312.024 232.574 309.272V272.312C232.574 270.52 232.35 269.304 231.902 268.664C231.518 267.96 230.75 267.608 229.598 267.608C228.894 267.608 228.19 267.64 227.486 267.704C226.846 267.768 226.43 267.8 226.238 267.8L225.662 267.032L226.526 261.176C227.422 261.176 229.086 261.208 231.518 261.272C233.95 261.336 236.318 261.368 238.622 261.368C241.246 261.368 244.062 261.304 247.07 261.176C250.078 261.048 252.158 260.952 253.31 260.888C260.67 260.888 266.302 262.328 270.206 265.208C274.11 268.024 276.062 272.088 276.062 277.4C276.062 281.176 274.942 284.632 272.702 287.768C270.526 290.904 267.358 293.56 263.198 295.736L271.55 309.176C273.278 312.056 274.974 314.168 276.638 315.512C278.366 316.792 280.222 317.432 282.206 317.432L282.878 318.392L282.206 323.48L270.781 324.536C266.558 324.536 263.038 321.56 260.222 315.608L252.062 298.904H245.342L245.15 309.464ZM254.27 291.224C259.71 288.984 262.43 284.984 262.43 279.224C262.43 275.704 261.246 273.112 258.878 271.448C256.574 269.72 252.99 268.856 248.126 268.856C247.486 268.856 247.07 268.984 246.878 269.24C246.686 269.496 246.558 270.072 246.494 270.968C245.982 278.904 245.694 285.336 245.63 290.264L254.27 291.224ZM303.861 268.952C300.213 269.08 297.653 269.432 296.181 270.008C294.773 270.52 293.781 271.544 293.205 273.08C292.629 274.616 292.117 277.4 291.669 281.432L283.605 282.008C283.733 280.728 283.925 277.944 284.181 273.656C284.501 269.368 284.693 265.272 284.757 261.368L285.813 260.312L295.413 261.368H325.365L335.157 260.312L336.213 261.368C336.277 265.4 336.437 269.464 336.693 273.56C336.949 277.592 337.109 280.216 337.173 281.432L329.109 282.008C328.597 277.656 328.053 274.712 327.477 273.176C326.965 271.576 326.037 270.52 324.693 270.008C323.349 269.432 320.949 269.08 317.493 268.952C317.237 273.432 317.013 279.704 316.821 287.768C316.629 295.768 316.533 303.192 316.533 310.04C316.533 312.408 316.917 314.104 317.685 315.128C318.517 316.088 319.861 316.568 321.717 316.568C323.061 316.568 324.181 316.536 325.077 316.472C325.973 316.408 326.549 316.344 326.805 316.28L327.189 316.76L326.325 323.384C325.045 323.32 322.709 323.224 319.317 323.096C315.989 323.032 312.757 323 309.621 323C307.381 323 304.437 323.064 300.789 323.192C297.141 323.384 294.741 323.512 293.589 323.576L294.357 317.24C297.301 316.984 299.381 316.6 300.597 316.088C301.877 315.512 302.741 314.616 303.189 313.4C303.637 312.12 303.861 310.04 303.861 307.16V268.952ZM399.317 272.312C398.997 277.688 398.709 284.056 398.453 291.416C398.261 298.776 398.165 305.048 398.165 310.232C398.165 312.728 398.421 314.424 398.933 315.32C399.509 316.216 400.565 316.664 402.101 316.664C402.933 316.664 403.669 316.632 404.309 316.568C405.013 316.504 405.461 316.44 405.653 316.376L406.133 317.144L405.269 323.288C404.373 323.224 402.581 323.16 399.893 323.096C397.269 323.032 394.389 323 391.253 323C388.757 323 386.133 323.032 383.381 323.096C380.693 323.16 378.837 323.192 377.813 323.192L378.677 316.856C380.533 316.792 381.941 316.504 382.901 315.992C383.861 315.48 384.533 314.616 384.917 313.4C385.301 312.184 385.493 310.392 385.493 308.024V295.832L375.221 295.736C374.133 295.736 371.893 295.864 368.501 296.12C365.109 296.376 362.837 296.568 361.685 296.696L361.493 310.232C361.493 312.856 361.717 314.616 362.165 315.512C362.677 316.344 363.669 316.76 365.141 316.76C366.037 316.76 366.805 316.728 367.445 316.664C368.085 316.6 368.501 316.536 368.693 316.472L369.173 317.144L368.309 323.288C367.413 323.288 365.781 323.224 363.413 323.096C361.109 323.032 358.837 323 356.597 323C353.781 323 350.549 323.096 346.901 323.288C343.253 323.544 341.397 323.736 341.333 323.864L342.005 317.624C344.821 317.048 346.677 316.248 347.573 315.224C348.469 314.136 348.917 312.248 348.917 309.56V272.6C348.917 270.616 348.693 269.304 348.245 268.664C347.797 267.96 346.869 267.608 345.461 267.608L342.581 267.704L342.101 266.936L342.773 261.272L354.293 261.368C356.277 261.368 358.901 261.272 362.165 261.08C365.493 260.888 367.701 260.76 368.789 260.696L368.309 267.128C366.645 267.384 365.429 267.736 364.661 268.184C363.893 268.568 363.349 269.176 363.029 270.008C362.773 270.84 362.613 272.152 362.549 273.944L361.973 287.672L374.261 287.864C378.165 287.864 381.909 287.64 385.493 287.192L385.589 272.6C385.589 270.616 385.365 269.304 384.917 268.664C384.469 267.96 383.541 267.608 382.133 267.608L379.157 267.704L378.677 266.936L379.349 261.272L391.637 261.368C393.493 261.368 396.053 261.272 399.317 261.08C402.581 260.888 404.725 260.76 405.749 260.696L405.269 267.032C402.901 267.352 401.333 267.864 400.565 268.568C399.861 269.208 399.445 270.456 399.317 272.312ZM440.028 324.152C439.004 324.024 436.892 323.8 433.692 323.48C430.492 323.16 427.74 323 425.436 323C423.388 323 421.02 323.128 418.332 323.384C415.708 323.64 413.98 323.832 413.148 323.96L413.82 317.336C416.508 316.824 418.332 316.024 419.292 314.936C420.252 313.848 420.732 311.96 420.732 309.272V272.888C420.732 270.84 420.54 269.464 420.156 268.76C419.772 268.056 418.972 267.704 417.756 267.704C417.052 267.704 416.38 267.736 415.74 267.8C415.164 267.864 414.78 267.896 414.588 267.896L414.012 267.032L414.78 261.08C415.676 261.08 417.34 261.144 419.772 261.272C422.268 261.336 424.7 261.368 427.068 261.368C429.884 261.368 432.828 261.304 435.9 261.176C438.972 261.048 441.084 260.952 442.236 260.888C451.964 260.888 459.58 263.448 465.084 268.568C470.588 273.624 473.34 280.664 473.34 289.688C473.34 296.344 471.9 302.296 469.02 307.544C466.204 312.792 462.268 316.888 457.212 319.832C452.156 322.712 446.428 324.152 440.028 324.152ZM437.148 269.24C436.124 269.24 435.42 269.4 435.036 269.72C434.716 270.04 434.524 270.648 434.46 271.544C433.628 289.016 433.212 301.496 433.212 308.984C433.212 310.84 433.436 312.248 433.884 313.208C434.332 314.168 435.1 314.84 436.188 315.224C437.34 315.608 439.004 315.8 441.18 315.8C446.748 315.8 450.972 313.88 453.852 310.04C456.732 306.136 458.172 300.344 458.172 292.664C458.172 284.536 456.444 278.616 452.988 274.904C449.596 271.128 444.316 269.24 437.148 269.24ZM527.555 310.328C528.259 312.632 529.155 314.264 530.243 315.224C531.331 316.184 532.931 316.76 535.043 316.952L535.427 317.624L534.755 323.288C533.923 323.224 532.355 323.16 530.051 323.096C527.747 323.032 525.379 323 522.947 323C519.555 323 516.227 323.096 512.963 323.288C509.699 323.544 507.619 323.704 506.723 323.768L506.243 323L506.723 317.144C508.899 316.952 510.467 316.76 511.427 316.568C512.451 316.312 513.155 315.992 513.539 315.608C513.923 315.16 514.115 314.52 514.115 313.688C514.115 312.92 513.923 311.864 513.539 310.52L511.619 303.224C509.955 303.16 507.043 303.128 502.883 303.128C500.387 303.128 497.347 303.352 493.763 303.8L491.459 311C491.075 312.344 490.883 313.336 490.883 313.976C490.883 315.064 491.203 315.832 491.843 316.28C492.483 316.664 493.635 316.856 495.299 316.856H499.331L499.811 317.528L499.139 323.576C498.243 323.512 496.291 323.384 493.283 323.192C490.339 323.064 487.619 323 485.123 323C482.435 323 479.971 323.032 477.73 323.096C475.554 323.16 474.114 323.224 473.41 323.288L474.178 316.856C475.715 316.6 476.931 316.024 477.827 315.128C478.787 314.168 479.651 312.632 480.419 310.52L497.507 261.848L512.771 260.312L513.827 260.792C514.787 264.44 516.771 271.928 519.779 283.256C522.851 294.52 525.443 303.544 527.555 310.328ZM502.786 295.544C504.835 295.544 507.203 295.416 509.891 295.16L504.323 274.04H502.979L496.067 295.544H502.786ZM552.701 270.008C552.701 271.352 555.421 277.944 560.861 289.784H561.725L569.309 273.944C570.205 272.152 570.653 270.616 570.653 269.336C570.653 268.632 570.269 268.12 569.501 267.8C568.733 267.416 567.485 267.192 565.757 267.128L565.565 266.648L566.237 261.08L570.941 261.272C574.397 261.4 577.085 261.464 579.005 261.464C580.861 261.464 582.813 261.432 584.861 261.368C586.909 261.24 588.253 261.144 588.893 261.08L589.277 261.752L588.605 267.608C586.045 268.44 583.997 269.72 582.461 271.448C580.925 273.112 579.069 275.928 576.893 279.896L567.773 297.08C566.877 298.68 566.333 300.312 566.141 301.976C566.013 303.576 565.949 306.552 565.949 310.904C565.949 313.016 566.269 314.488 566.909 315.32C567.613 316.152 568.797 316.568 570.461 316.568C571.549 316.568 572.541 316.536 573.437 316.472C574.333 316.408 574.941 316.344 575.261 316.28L575.549 316.76L574.685 323.384C573.469 323.32 571.261 323.224 568.061 323.096C564.925 323.032 561.853 323 558.845 323C556.541 323 553.725 323.128 550.397 323.384C547.069 323.704 544.893 323.928 543.869 324.056L544.541 317.432C547.101 317.112 548.957 316.664 550.109 316.088C551.325 315.512 552.125 314.648 552.509 313.496C552.957 312.344 553.181 310.648 553.181 308.408V305.528C553.181 303.864 552.989 302.328 552.605 300.92C552.221 299.512 551.485 297.784 550.397 295.736L540.989 277.4C539.453 274.328 537.949 272.12 536.477 270.776C535.069 269.368 532.957 268.376 530.14 267.8L529.852 267.32L530.62 261.176C531.581 261.176 533.277 261.24 535.709 261.368C538.205 261.432 540.637 261.464 543.005 261.464C545.117 261.464 547.933 261.368 551.453 261.176C554.973 260.92 557.309 260.76 558.461 260.696L558.941 261.56L558.365 267.128C556.253 267.192 554.781 267.448 553.949 267.896C553.117 268.344 552.701 269.048 552.701 270.008Z" fill="#0796FE"/>
<g filter="url(#filter0_d)">
<path d="M575.282 56.2711L510.886 63.8997L451 185.458L521.172 211.729L591.344 238L620.131 104.799L575.282 56.2711Z" fill="white"/>
</g>
<path d="M496.24 168.72C496.24 169.04 498.16 168.112 502 165.936C505.904 163.824 509.68 160.88 513.328 157.104C516.976 153.264 519.536 148.56 521.008 142.992L520.72 142.704C520.336 142.96 519.472 143.504 518.128 144.336C516.784 145.104 515.312 145.872 513.712 146.64C512.112 147.344 510.896 147.696 510.064 147.696C506.544 147.696 503.536 146.928 501.04 145.392C498.544 143.792 496.656 141.808 495.376 139.44C494.096 137.008 493.456 134.512 493.456 131.952C493.456 128.624 494.256 125.552 495.856 122.736C497.52 119.92 499.792 117.68 502.672 116.016C505.552 114.352 508.848 113.52 512.56 113.52C516.016 113.52 519.056 114.416 521.68 116.208C524.304 117.936 526.32 120.336 527.728 123.408C529.136 126.416 529.84 129.808 529.84 133.584C529.84 142.16 527.472 149.296 522.736 154.992C518 160.688 512.688 165.072 506.8 168.144C500.912 171.28 497.968 172.592 497.968 172.08L497.296 171.6L496.24 168.72ZM512.176 142.032C515.184 142.032 518.416 140.848 521.872 138.48C522.064 137.136 522.16 135.696 522.16 134.16C522.16 129.296 521.104 125.424 518.992 122.544C516.944 119.6 514.16 118.128 510.64 118.128C507.568 118.128 505.104 119.152 503.248 121.2C501.456 123.248 500.56 126.064 500.56 129.648C500.56 133.04 501.648 135.952 503.824 138.384C506 140.816 508.784 142.032 512.176 142.032ZM548.87 163.152C547.142 163.152 545.798 162.64 544.838 161.616C543.942 160.528 543.494 159.216 543.494 157.68C543.494 156.016 544.038 154.608 545.126 153.456C546.214 152.304 547.654 151.728 549.446 151.728C551.174 151.728 552.518 152.272 553.478 153.36C554.438 154.384 554.918 155.664 554.918 157.2C554.918 158.864 554.342 160.272 553.19 161.424C552.102 162.576 550.662 163.152 548.87 163.152ZM565.176 168.72C565.176 169.04 567.096 168.112 570.936 165.936C574.84 163.824 578.616 160.88 582.264 157.104C585.912 153.264 588.472 148.56 589.944 142.992L589.656 142.704C589.272 142.96 588.408 143.504 587.064 144.336C585.72 145.104 584.248 145.872 582.648 146.64C581.048 147.344 579.832 147.696 579 147.696C575.48 147.696 572.472 146.928 569.976 145.392C567.48 143.792 565.592 141.808 564.312 139.44C563.032 137.008 562.392 134.512 562.392 131.952C562.392 128.624 563.192 125.552 564.792 122.736C566.456 119.92 568.728 117.68 571.608 116.016C574.488 114.352 577.784 113.52 581.496 113.52C584.952 113.52 587.992 114.416 590.616 116.208C593.24 117.936 595.256 120.336 596.664 123.408C598.072 126.416 598.776 129.808 598.776 133.584C598.776 142.16 596.408 149.296 591.672 154.992C586.936 160.688 581.624 165.072 575.736 168.144C569.848 171.28 566.904 172.592 566.904 172.08L566.232 171.6L565.176 168.72ZM581.112 142.032C584.12 142.032 587.352 140.848 590.808 138.48C591 137.136 591.096 135.696 591.096 134.16C591.096 129.296 590.04 125.424 587.928 122.544C585.88 119.6 583.096 118.128 579.576 118.128C576.504 118.128 574.04 119.152 572.184 121.2C570.392 123.248 569.496 126.064 569.496 129.648C569.496 133.04 570.584 135.952 572.76 138.384C574.936 140.816 577.72 142.032 581.112 142.032Z" fill="#0796FE"/>
<g filter="url(#filter1_d)">
<path d="M356 355.085L301.998 380.433L288.692 495.144L358.692 495.059L428.692 494.974L410.975 380.301L356 355.085Z" fill="#11A3F4"/>
</g>
<path d="M215.808 401.872C213.408 418 205.728 427.504 186.624 434.32L187.104 435.76C209.664 430.384 219.936 420.784 223.2 401.872H235.2V423.472C235.2 428.176 236.544 429.712 243.84 429.712H253.728C268.224 429.712 271.008 428.56 271.008 425.776C271.008 424.528 270.528 423.76 268.416 422.992L268.128 412.336H266.88C265.92 416.944 264.864 421.456 264.096 422.704C263.712 423.568 263.424 423.76 262.368 423.856C261.024 423.952 257.856 423.952 254.016 423.952H245.184C241.824 423.952 241.44 423.664 241.44 422.32V402.448V401.872H260.064C258.144 405.904 255.264 410.992 253.248 414.16L254.496 414.832C258.912 411.952 264.96 406.768 268.32 403.024C270.144 402.928 271.392 402.832 271.968 402.064L264.384 394.768L260.16 398.992H231.264V388.912C233.472 388.624 234.432 387.664 234.624 386.416L224.832 385.36V398.992H197.664C197.472 397.168 197.088 395.248 196.512 393.136H194.784C195.168 400.432 191.712 407.44 187.968 410.128C185.952 411.472 184.8 413.584 185.856 415.504C187.104 417.616 190.56 417.136 192.864 415.12C195.456 413.008 197.952 408.496 197.856 401.872H215.808ZM258.624 466.672H231.264V442.768H262.56C263.808 442.768 264.768 442.288 265.056 441.232C261.888 438.256 256.608 434.32 256.608 434.32L252.096 439.888H193.248L194.112 442.768H224.832V466.672H184.512L185.376 469.456H269.568C270.912 469.456 271.776 469.072 271.968 468.016C268.8 464.848 263.424 460.624 263.424 460.624L258.624 466.672ZM503.232 427.504H477.504V415.216C479.616 414.832 480.48 414.16 480.768 412.72L479.04 412.528C488.352 408.4 498.24 402.16 504.864 397.456C507.072 397.264 508.32 397.072 509.184 396.4L501.408 389.392L496.8 393.712H439.872L440.736 396.496H495.36C490.56 401.392 483.264 407.824 476.448 412.24L470.976 411.664V427.504H430.272L430.944 430.288H470.976V463.216C470.976 465.04 470.304 465.616 468.096 465.616C465.408 465.616 451.104 464.656 451.104 464.656V466.192C456.96 466.864 460.416 467.728 462.336 468.88C464.064 469.744 464.832 471.376 465.312 473.392C476.16 472.432 477.504 468.976 477.504 463.696V430.288H515.136C516.576 430.288 517.44 429.904 517.632 428.848C514.08 425.584 508.416 421.168 508.416 421.168L503.232 427.504Z" fill="#0796FE"/>
<path d="M329.184 390.544C331.584 390.544 332.544 389.968 332.832 388.912L323.616 385.648C320.736 395.728 312.768 411.184 304.896 419.728L306.144 420.784C315.36 413.68 323.52 401.776 328.32 392.272C334.08 397.36 338.4 403.216 340.32 407.344C345.888 411.28 352.896 399.76 329.184 390.544ZM346.08 456.4C340.32 457.744 334.752 459.088 329.472 460.336V431.632H343.968C345.312 431.632 346.176 431.152 346.464 430.096C343.584 427.312 338.976 423.568 338.976 423.568L334.944 428.944H329.472V416.08H341.184C342.432 416.08 343.392 415.6 343.584 414.544C340.704 411.952 336.288 408.208 336.288 408.208L332.256 413.392H314.304L315.072 416.08H323.52V428.944H307.392L308.16 431.632H323.52V461.68C316.32 463.312 310.272 464.56 306.72 465.232L311.232 473.2C312.192 472.816 312.96 471.952 313.344 470.8C328.032 465.424 338.784 461.104 346.464 457.84L346.08 456.4ZM310.464 437.584C312.384 442.672 314.304 450.544 313.92 456.592C318.72 461.872 324.864 450.16 311.808 437.2L310.464 437.584ZM333.984 456.304C336.96 452.08 339.648 446.032 341.856 440.848C343.872 440.848 344.928 439.984 345.312 438.832L336.384 436.24C335.424 442.864 333.888 450.544 332.448 455.536L333.984 456.304ZM355.584 410.896H382.08V425.2H355.584V410.896ZM382.08 394.288V408.016H355.584V394.288H382.08ZM388.224 431.632C383.616 436.912 377.76 442.384 373.056 446.032C369.888 440.752 367.488 434.704 365.856 428.08H382.08V432.304H383.04C385.824 432.304 388.032 430.768 388.032 430.288V395.248C390.048 394.96 391.104 394.384 391.776 393.616L384.192 387.76L381.216 391.408H356.832L349.824 388.528V463.312C345.216 464.464 341.472 465.328 339.072 465.712L343.104 473.68C343.968 473.296 344.832 472.432 345.12 471.28C357.696 466.096 367.104 461.68 373.824 458.704L373.44 457.264C367.2 458.896 361.056 460.528 355.584 461.872V428.08H363.84C367.584 449.296 376.224 463.984 390.912 473.008C392.064 470.128 394.272 468.496 396.768 468.304L396.96 467.344C387.552 463.12 379.872 456.592 374.208 447.952C379.776 445.552 386.496 441.712 391.872 437.776C393.792 438.448 394.656 438.16 395.328 437.488L388.224 431.632Z" fill="white"/>
</g>
<defs>
<filter id="filter0_d" x="451" y="56.2715" width="177.131" height="189.729" filterUnits="userSpaceOnUse" color-interpolation-filters="sRGB">
<feFlood flood-opacity="0" result="BackgroundImageFix"/>
<feColorMatrix in="SourceAlpha" type="matrix" values="0 0 0 0 0 0 0 0 0 0 0 0 0 0 0 0 0 0 127 0"/>
<feOffset dx="4" dy="4"/>
<feGaussianBlur stdDeviation="2"/>
<feColorMatrix type="matrix" values="0 0 0 0 0 0 0 0 0 0 0 0 0 0 0 0 0 0 0.71 0"/>
<feBlend mode="normal" in2="BackgroundImageFix" result="effect1_dropShadow"/>
<feBlend mode="normal" in="SourceGraphic" in2="effect1_dropShadow" result="shape"/>
</filter>
<filter id="filter1_d" x="286.692" y="353.085" width="148" height="148.059" filterUnits="userSpaceOnUse" color-interpolation-filters="sRGB">
<feFlood flood-opacity="0" result="BackgroundImageFix"/>
<feColorMatrix in="SourceAlpha" type="matrix" values="0 0 0 0 0 0 0 0 0 0 0 0 0 0 0 0 0 0 127 0"/>
<feOffset dx="2" dy="2"/>
<feGaussianBlur stdDeviation="2"/>
<feColorMatrix type="matrix" values="0 0 0 0 0 0 0 0 0 0 0 0 0 0 0 0 0 0 0.71 0"/>
<feBlend mode="normal" in2="BackgroundImageFix" result="effect1_dropShadow"/>
<feBlend mode="normal" in="SourceGraphic" in2="effect1_dropShadow" result="shape"/>
</filter>
<clipPath id="clip0">
<rect width="788" height="620" fill="white"/>
</clipPath>
</defs>
</svg>
