<svg width="151" height="153" viewBox="0 0 151 153" fill="none" xmlns="http://www.w3.org/2000/svg">
<path d="M75.4998 76.499V150.999" stroke="white" stroke-opacity="0.69" stroke-width="4" stroke-miterlimit="10" stroke-linecap="round"/>
<path d="M62.0574 97.6495L75.4998 85.1475L88.9422 97.6495" stroke="white" stroke-opacity="0.69" stroke-width="4" stroke-miterlimit="10" stroke-linecap="round"/>
<path d="M66.2839 110.585L75.4998 102.014L84.7157 110.585" stroke="white" stroke-opacity="0.69" stroke-width="4" stroke-miterlimit="10" stroke-linecap="round"/>
<path d="M52.6461 131.827L75.4999 110.572L98.3536 131.827" stroke="white" stroke-opacity="0.69" stroke-width="4" stroke-miterlimit="10" stroke-linecap="round"/>
<path d="M56.2051 145.072L75.5 127.127L94.7949 145.072" stroke="white" stroke-opacity="0.69" stroke-width="4" stroke-miterlimit="10" stroke-linecap="round"/>
<path d="M75.5 76.4995L6.12805 113.75" stroke="white" stroke-opacity="0.69" stroke-width="4" stroke-miterlimit="10" stroke-linecap="round"/>
<path d="M49.0837 76.2485L67.4464 80.8246L62.5262 97.9027" stroke="white" stroke-opacity="0.69" stroke-width="4" stroke-miterlimit="10" stroke-linecap="round"/>
<path d="M39.1527 86.1206L51.7418 89.2578L48.3686 100.966" stroke="white" stroke-opacity="0.69" stroke-width="4" stroke-miterlimit="10" stroke-linecap="round"/>
<path d="M12.5541 85.7559L43.7729 93.5357L35.4078 122.571" stroke="white" stroke-opacity="0.69" stroke-width="4" stroke-miterlimit="10" stroke-linecap="round"/>
<path d="M2 95.2451L28.3573 101.814L21.2949 126.327" stroke="white" stroke-opacity="0.69" stroke-width="4" stroke-miterlimit="10" stroke-linecap="round"/>
<path d="M75.5 76.4985L6.12805 39.2485" stroke="white" stroke-opacity="0.69" stroke-width="4" stroke-miterlimit="10" stroke-linecap="round"/>
<path d="M62.5262 55.0967L67.4464 72.1748L49.0837 76.7508" stroke="white" stroke-opacity="0.69" stroke-width="4" stroke-miterlimit="10" stroke-linecap="round"/>
<path d="M48.3686 52.0342L51.7418 63.7426L39.1527 66.8799" stroke="white" stroke-opacity="0.69" stroke-width="4" stroke-miterlimit="10" stroke-linecap="round"/>
<path d="M35.4078 30.4287L43.7729 59.4635L12.5541 67.2434" stroke="white" stroke-opacity="0.69" stroke-width="4" stroke-miterlimit="10" stroke-linecap="round"/>
<path d="M21.2949 26.6719L28.3573 51.1853L2 57.7537" stroke="white" stroke-opacity="0.69" stroke-width="4" stroke-miterlimit="10" stroke-linecap="round"/>
<path d="M75.4998 76.5V2" stroke="white" stroke-opacity="0.69" stroke-width="4" stroke-miterlimit="10" stroke-linecap="round"/>
<path d="M88.9422 55.3496L75.4998 67.8516L62.0574 55.3496" stroke="white" stroke-opacity="0.69" stroke-width="4" stroke-miterlimit="10" stroke-linecap="round"/>
<path d="M84.7157 42.4136L75.4998 50.9847L66.2839 42.4136" stroke="white" stroke-opacity="0.69" stroke-width="4" stroke-miterlimit="10" stroke-linecap="round"/>
<path d="M98.3536 21.1719L75.4999 42.4268L52.6461 21.1719" stroke="white" stroke-opacity="0.69" stroke-width="4" stroke-miterlimit="10" stroke-linecap="round"/>
<path d="M94.7949 7.92773L75.5 25.8728L56.2051 7.92773" stroke="white" stroke-opacity="0.69" stroke-width="4" stroke-miterlimit="10" stroke-linecap="round"/>
<path d="M75.5001 76.498L144.872 39.248" stroke="white" stroke-opacity="0.69" stroke-width="4" stroke-miterlimit="10" stroke-linecap="round"/>
<path d="M101.916 76.7513L83.5537 72.1753L88.474 55.0972" stroke="white" stroke-opacity="0.69" stroke-width="4" stroke-miterlimit="10" stroke-linecap="round"/>
<path d="M111.848 66.8804L99.2584 63.7431L102.632 52.0347" stroke="white" stroke-opacity="0.69" stroke-width="4" stroke-miterlimit="10" stroke-linecap="round"/>
<path d="M138.446 67.2434L107.227 59.4635L115.592 30.4287" stroke="white" stroke-opacity="0.69" stroke-width="4" stroke-miterlimit="10" stroke-linecap="round"/>
<path d="M149 57.7547L122.643 51.1863L129.705 26.6729" stroke="white" stroke-opacity="0.69" stroke-width="4" stroke-miterlimit="10" stroke-linecap="round"/>
<path d="M75.5001 76.499L144.872 113.749" stroke="white" stroke-opacity="0.69" stroke-width="4" stroke-miterlimit="10" stroke-linecap="round"/>
<path d="M88.474 97.9027L83.5537 80.8246L101.916 76.2485" stroke="white" stroke-opacity="0.69" stroke-width="4" stroke-miterlimit="10" stroke-linecap="round"/>
<path d="M102.632 100.966L99.2584 89.2578L111.848 86.1206" stroke="white" stroke-opacity="0.69" stroke-width="4" stroke-miterlimit="10" stroke-linecap="round"/>
<path d="M115.592 122.571L107.227 93.5357L138.446 85.7559" stroke="white" stroke-opacity="0.69" stroke-width="4" stroke-miterlimit="10" stroke-linecap="round"/>
<path d="M129.705 126.327L122.643 101.814L149 95.2451" stroke="white" stroke-opacity="0.69" stroke-width="4" stroke-miterlimit="10" stroke-linecap="round"/>
</svg>
