<svg width="145" height="168" viewBox="0 0 145 168" fill="none" xmlns="http://www.w3.org/2000/svg">
<path d="M72.5 83.9995V166" stroke="#11A3F4" stroke-opacity="0.69" stroke-width="4" stroke-miterlimit="10" stroke-linecap="round"/>
<path d="M56.386 108.514L72.4999 92.2827L88.6139 108.514" stroke="#11A3F4" stroke-opacity="0.69" stroke-width="4" stroke-miterlimit="10" stroke-linecap="round"/>
<path d="M52.8628 126.689L72.5001 106.908L92.1373 126.689" stroke="#11A3F4" stroke-opacity="0.69" stroke-width="4" stroke-miterlimit="10" stroke-linecap="round"/>
<path d="M64.7092 137.124L72.5002 129.276L80.2911 137.124" stroke="#11A3F4" stroke-opacity="0.69" stroke-width="4" stroke-miterlimit="10" stroke-linecap="round"/>
<path d="M61.5581 155.111L72.5002 144.089L83.4424 155.111" stroke="#11A3F4" stroke-opacity="0.69" stroke-width="4" stroke-miterlimit="10" stroke-linecap="round"/>
<path d="M72.5 83.999L2 124.999" stroke="#11A3F4" stroke-opacity="0.69" stroke-width="4" stroke-miterlimit="10" stroke-linecap="round"/>
<path d="M43.3655 82.1997L65.3775 88.1408L59.4794 110.313" stroke="#11A3F4" stroke-opacity="0.69" stroke-width="4" stroke-miterlimit="10" stroke-linecap="round"/>
<path d="M25.9783 88.2129L52.8033 95.453L45.6155 122.474" stroke="#11A3F4" stroke-opacity="0.69" stroke-width="4" stroke-miterlimit="10" stroke-linecap="round"/>
<path d="M22.9309 103.763L33.5735 106.636L30.7218 117.356" stroke="#11A3F4" stroke-opacity="0.69" stroke-width="4" stroke-miterlimit="10" stroke-linecap="round"/>
<path d="M5.89087 110.009L20.8381 114.044L16.833 129.1" stroke="#11A3F4" stroke-opacity="0.69" stroke-width="4" stroke-miterlimit="10" stroke-linecap="round"/>
<path d="M72.5 84L2 43" stroke="#11A3F4" stroke-opacity="0.69" stroke-width="4" stroke-miterlimit="10" stroke-linecap="round"/>
<path d="M59.4794 57.6855L65.3775 79.8581L43.3655 85.7992" stroke="#11A3F4" stroke-opacity="0.69" stroke-width="4" stroke-miterlimit="10" stroke-linecap="round"/>
<path d="M45.6155 45.5249L52.8033 72.5455L25.9783 79.7857" stroke="#11A3F4" stroke-opacity="0.69" stroke-width="4" stroke-miterlimit="10" stroke-linecap="round"/>
<path d="M30.7218 50.6421L33.5735 61.3623L22.9309 64.2348" stroke="#11A3F4" stroke-opacity="0.69" stroke-width="4" stroke-miterlimit="10" stroke-linecap="round"/>
<path d="M16.833 38.8994L20.8381 53.9557L5.89087 57.99" stroke="#11A3F4" stroke-opacity="0.69" stroke-width="4" stroke-miterlimit="10" stroke-linecap="round"/>
<path d="M72.5 84V2" stroke="#11A3F4" stroke-opacity="0.69" stroke-width="4" stroke-miterlimit="10" stroke-linecap="round"/>
<path d="M88.6139 59.4834L72.4999 75.7148L56.386 59.4834" stroke="#11A3F4" stroke-opacity="0.69" stroke-width="4" stroke-miterlimit="10" stroke-linecap="round"/>
<path d="M92.1373 41.3096L72.5001 61.09L52.8628 41.3096" stroke="#11A3F4" stroke-opacity="0.69" stroke-width="4" stroke-miterlimit="10" stroke-linecap="round"/>
<path d="M80.2911 30.876L72.5002 38.7237L64.7092 30.876" stroke="#11A3F4" stroke-opacity="0.69" stroke-width="4" stroke-miterlimit="10" stroke-linecap="round"/>
<path d="M83.4424 12.8896L72.5002 23.9116L61.5581 12.8896" stroke="#11A3F4" stroke-opacity="0.69" stroke-width="4" stroke-miterlimit="10" stroke-linecap="round"/>
<path d="M72.5 84L143 43" stroke="#11A3F4" stroke-opacity="0.69" stroke-width="4" stroke-miterlimit="10" stroke-linecap="round"/>
<path d="M101.634 85.7992L79.6223 79.8581L85.5204 57.6855" stroke="#11A3F4" stroke-opacity="0.69" stroke-width="4" stroke-miterlimit="10" stroke-linecap="round"/>
<path d="M119.022 79.7857L92.1968 72.5455L99.3845 45.5249" stroke="#11A3F4" stroke-opacity="0.69" stroke-width="4" stroke-miterlimit="10" stroke-linecap="round"/>
<path d="M122.069 64.2348L111.426 61.3623L114.278 50.6421" stroke="#11A3F4" stroke-opacity="0.69" stroke-width="4" stroke-miterlimit="10" stroke-linecap="round"/>
<path d="M139.109 57.99L124.162 53.9557L128.167 38.8994" stroke="#11A3F4" stroke-opacity="0.69" stroke-width="4" stroke-miterlimit="10" stroke-linecap="round"/>
<path d="M72.5 83.999L143 124.999" stroke="#11A3F4" stroke-opacity="0.69" stroke-width="4" stroke-miterlimit="10" stroke-linecap="round"/>
<path d="M85.5204 110.313L79.6223 88.1408L101.634 82.1997" stroke="#11A3F4" stroke-opacity="0.69" stroke-width="4" stroke-miterlimit="10" stroke-linecap="round"/>
<path d="M99.3845 122.474L92.1968 95.453L119.022 88.2129" stroke="#11A3F4" stroke-opacity="0.69" stroke-width="4" stroke-miterlimit="10" stroke-linecap="round"/>
<path d="M114.278 117.356L111.426 106.636L122.069 103.763" stroke="#11A3F4" stroke-opacity="0.69" stroke-width="4" stroke-miterlimit="10" stroke-linecap="round"/>
<path d="M128.167 129.1L124.162 114.044L139.109 110.009" stroke="#11A3F4" stroke-opacity="0.69" stroke-width="4" stroke-miterlimit="10" stroke-linecap="round"/>
</svg>
