<svg width="148" height="149" viewBox="0 0 148 149" fill="none" xmlns="http://www.w3.org/2000/svg">
<path d="M74 74.5V147" stroke="#0796FE" stroke-opacity="0.84" stroke-width="4" stroke-miterlimit="10" stroke-linecap="round"/>
<path d="M65.7767 93.1053L73.9999 84.895L82.2231 93.1053" stroke="#0796FE" stroke-opacity="0.84" stroke-width="4" stroke-miterlimit="10" stroke-linecap="round"/>
<path d="M73.5768 103.712L74 103.289L74.4232 103.712" stroke="#0796FE" stroke-opacity="0.84" stroke-width="4" stroke-miterlimit="10" stroke-linecap="round"/>
<path d="M51.0399 129.462L73.9999 106.538L96.96 129.462" stroke="#0796FE" stroke-opacity="0.84" stroke-width="4" stroke-miterlimit="10" stroke-linecap="round"/>
<path d="M50.7509 144.107L73.9999 120.894L97.249 144.107" stroke="#0796FE" stroke-opacity="0.84" stroke-width="4" stroke-miterlimit="10" stroke-linecap="round"/>
<path d="M74 74.5L11.1146 110.75" stroke="#0796FE" stroke-opacity="0.84" stroke-width="4" stroke-miterlimit="10" stroke-linecap="round"/>
<path d="M53.7506 76.6914L64.9836 79.6966L61.9738 90.9121" stroke="#0796FE" stroke-opacity="0.84" stroke-width="4" stroke-miterlimit="10" stroke-linecap="round"/>
<path d="M48.4509 88.7393L49.029 88.894L48.8741 89.4712" stroke="#0796FE" stroke-opacity="0.84" stroke-width="4" stroke-miterlimit="10" stroke-linecap="round"/>
<path d="M14.8467 82.1284L46.2107 90.5192L37.8067 121.834" stroke="#0796FE" stroke-opacity="0.84" stroke-width="4" stroke-miterlimit="10" stroke-linecap="round"/>
<path d="M2 89.2002L33.7588 97.6966L25.2491 129.406" stroke="#0796FE" stroke-opacity="0.84" stroke-width="4" stroke-miterlimit="10" stroke-linecap="round"/>
<path d="M74 74.5009L11.1146 38.251" stroke="#0796FE" stroke-opacity="0.84" stroke-width="4" stroke-miterlimit="10" stroke-linecap="round"/>
<path d="M61.9738 58.0879L64.9836 69.3034L53.7506 72.3086" stroke="#0796FE" stroke-opacity="0.84" stroke-width="4" stroke-miterlimit="10" stroke-linecap="round"/>
<path d="M48.8741 59.5283L49.029 60.1056L48.4509 60.2603" stroke="#0796FE" stroke-opacity="0.84" stroke-width="4" stroke-miterlimit="10" stroke-linecap="round"/>
<path d="M37.8067 27.167L46.2107 58.4818L14.8467 66.8725" stroke="#0796FE" stroke-opacity="0.84" stroke-width="4" stroke-miterlimit="10" stroke-linecap="round"/>
<path d="M25.2491 19.5947L33.7588 51.3037L2 59.8002" stroke="#0796FE" stroke-opacity="0.84" stroke-width="4" stroke-miterlimit="10" stroke-linecap="round"/>
<path d="M74 74.5V2" stroke="#0796FE" stroke-opacity="0.84" stroke-width="4" stroke-miterlimit="10" stroke-linecap="round"/>
<path d="M82.2231 55.8945L73.9999 64.1048L65.7767 55.8945" stroke="#0796FE" stroke-opacity="0.84" stroke-width="4" stroke-miterlimit="10" stroke-linecap="round"/>
<path d="M74.4232 45.2891L74 45.7117L73.5768 45.2891" stroke="#0796FE" stroke-opacity="0.84" stroke-width="4" stroke-miterlimit="10" stroke-linecap="round"/>
<path d="M96.96 19.5381L73.9999 42.4621L51.0399 19.5381" stroke="#0796FE" stroke-opacity="0.84" stroke-width="4" stroke-miterlimit="10" stroke-linecap="round"/>
<path d="M97.249 4.89355L73.9999 28.1061L50.7509 4.89355" stroke="#0796FE" stroke-opacity="0.84" stroke-width="4" stroke-miterlimit="10" stroke-linecap="round"/>
<path d="M74 74.5009L136.885 38.251" stroke="#0796FE" stroke-opacity="0.84" stroke-width="4" stroke-miterlimit="10" stroke-linecap="round"/>
<path d="M94.2493 72.3086L83.0164 69.3034L86.0262 58.0879" stroke="#0796FE" stroke-opacity="0.84" stroke-width="4" stroke-miterlimit="10" stroke-linecap="round"/>
<path d="M99.5491 60.2603L98.9709 60.1056L99.1258 59.5283" stroke="#0796FE" stroke-opacity="0.84" stroke-width="4" stroke-miterlimit="10" stroke-linecap="round"/>
<path d="M133.153 66.8725L101.789 58.4818L110.193 27.167" stroke="#0796FE" stroke-opacity="0.84" stroke-width="4" stroke-miterlimit="10" stroke-linecap="round"/>
<path d="M146 59.8002L114.241 51.3037L122.751 19.5947" stroke="#0796FE" stroke-opacity="0.84" stroke-width="4" stroke-miterlimit="10" stroke-linecap="round"/>
<path d="M74 74.5L136.885 110.75" stroke="#0796FE" stroke-opacity="0.84" stroke-width="4" stroke-miterlimit="10" stroke-linecap="round"/>
<path d="M86.0262 90.9121L83.0164 79.6966L94.2493 76.6914" stroke="#0796FE" stroke-opacity="0.84" stroke-width="4" stroke-miterlimit="10" stroke-linecap="round"/>
<path d="M99.1258 89.4712L98.9709 88.894L99.5491 88.7393" stroke="#0796FE" stroke-opacity="0.84" stroke-width="4" stroke-miterlimit="10" stroke-linecap="round"/>
<path d="M110.193 121.834L101.789 90.5192L133.153 82.1284" stroke="#0796FE" stroke-opacity="0.84" stroke-width="4" stroke-miterlimit="10" stroke-linecap="round"/>
<path d="M122.751 129.406L114.241 97.6966L146 89.2002" stroke="#0796FE" stroke-opacity="0.84" stroke-width="4" stroke-miterlimit="10" stroke-linecap="round"/>
</svg>
