<svg width="148" height="149" viewBox="0 0 148 149" fill="none" xmlns="http://www.w3.org/2000/svg">
<path d="M74 74.5005V147" stroke="#0796FE" stroke-opacity="0.84" stroke-width="4" stroke-miterlimit="10" stroke-linecap="round"/>
<path d="M65.7767 93.1058L73.9999 84.8955L82.2231 93.1058" stroke="#0796FE" stroke-opacity="0.84" stroke-width="4" stroke-miterlimit="10" stroke-linecap="round"/>
<path d="M73.5768 103.712L74 103.29L74.4232 103.712" stroke="#0796FE" stroke-opacity="0.84" stroke-width="4" stroke-miterlimit="10" stroke-linecap="round"/>
<path d="M51.0399 129.462L73.9999 106.538L96.96 129.462" stroke="#0796FE" stroke-opacity="0.84" stroke-width="4" stroke-miterlimit="10" stroke-linecap="round"/>
<path d="M50.7509 144.107L73.9999 120.895L97.249 144.107" stroke="#0796FE" stroke-opacity="0.84" stroke-width="4" stroke-miterlimit="10" stroke-linecap="round"/>
<path d="M74 74.5005L11.1146 110.75" stroke="#0796FE" stroke-opacity="0.84" stroke-width="4" stroke-miterlimit="10" stroke-linecap="round"/>
<path d="M53.7506 76.6924L64.9836 79.6975L61.9738 90.913" stroke="#0796FE" stroke-opacity="0.84" stroke-width="4" stroke-miterlimit="10" stroke-linecap="round"/>
<path d="M48.4509 88.7397L49.029 88.8945L48.8741 89.4717" stroke="#0796FE" stroke-opacity="0.84" stroke-width="4" stroke-miterlimit="10" stroke-linecap="round"/>
<path d="M14.8467 82.1289L46.2107 90.5197L37.8067 121.834" stroke="#0796FE" stroke-opacity="0.84" stroke-width="4" stroke-miterlimit="10" stroke-linecap="round"/>
<path d="M2 89.2007L33.7588 97.6971L25.2491 129.406" stroke="#0796FE" stroke-opacity="0.84" stroke-width="4" stroke-miterlimit="10" stroke-linecap="round"/>
<path d="M74 74.5005L11.1146 38.2505" stroke="#0796FE" stroke-opacity="0.84" stroke-width="4" stroke-miterlimit="10" stroke-linecap="round"/>
<path d="M61.9738 58.0869L64.9836 69.3024L53.7506 72.3076" stroke="#0796FE" stroke-opacity="0.84" stroke-width="4" stroke-miterlimit="10" stroke-linecap="round"/>
<path d="M48.8741 59.5283L49.029 60.1056L48.4509 60.2603" stroke="#0796FE" stroke-opacity="0.84" stroke-width="4" stroke-miterlimit="10" stroke-linecap="round"/>
<path d="M37.8067 27.1665L46.2107 58.4813L14.8467 66.8721" stroke="#0796FE" stroke-opacity="0.84" stroke-width="4" stroke-miterlimit="10" stroke-linecap="round"/>
<path d="M25.2491 19.5942L33.7588 51.3032L2 59.7997" stroke="#0796FE" stroke-opacity="0.84" stroke-width="4" stroke-miterlimit="10" stroke-linecap="round"/>
<path d="M74 74.5V2" stroke="#0796FE" stroke-opacity="0.84" stroke-width="4" stroke-miterlimit="10" stroke-linecap="round"/>
<path d="M82.2231 55.895L73.9999 64.1053L65.7767 55.895" stroke="#0796FE" stroke-opacity="0.84" stroke-width="4" stroke-miterlimit="10" stroke-linecap="round"/>
<path d="M74.4232 45.2886L74 45.7112L73.5768 45.2886" stroke="#0796FE" stroke-opacity="0.84" stroke-width="4" stroke-miterlimit="10" stroke-linecap="round"/>
<path d="M96.96 19.5381L73.9999 42.4621L51.0399 19.5381" stroke="#0796FE" stroke-opacity="0.84" stroke-width="4" stroke-miterlimit="10" stroke-linecap="round"/>
<path d="M97.249 4.89404L73.9999 28.1066L50.7509 4.89404" stroke="#0796FE" stroke-opacity="0.84" stroke-width="4" stroke-miterlimit="10" stroke-linecap="round"/>
<path d="M74 74.5005L136.885 38.2505" stroke="#0796FE" stroke-opacity="0.84" stroke-width="4" stroke-miterlimit="10" stroke-linecap="round"/>
<path d="M94.2493 72.3076L83.0164 69.3024L86.0262 58.0869" stroke="#0796FE" stroke-opacity="0.84" stroke-width="4" stroke-miterlimit="10" stroke-linecap="round"/>
<path d="M99.5491 60.2603L98.9709 60.1056L99.1258 59.5283" stroke="#0796FE" stroke-opacity="0.84" stroke-width="4" stroke-miterlimit="10" stroke-linecap="round"/>
<path d="M133.153 66.8721L101.789 58.4813L110.193 27.1665" stroke="#0796FE" stroke-opacity="0.84" stroke-width="4" stroke-miterlimit="10" stroke-linecap="round"/>
<path d="M146 59.7997L114.241 51.3032L122.751 19.5942" stroke="#0796FE" stroke-opacity="0.84" stroke-width="4" stroke-miterlimit="10" stroke-linecap="round"/>
<path d="M74 74.5005L136.885 110.75" stroke="#0796FE" stroke-opacity="0.84" stroke-width="4" stroke-miterlimit="10" stroke-linecap="round"/>
<path d="M86.0262 90.913L83.0164 79.6975L94.2493 76.6924" stroke="#0796FE" stroke-opacity="0.84" stroke-width="4" stroke-miterlimit="10" stroke-linecap="round"/>
<path d="M99.1258 89.4717L98.9709 88.8945L99.5491 88.7397" stroke="#0796FE" stroke-opacity="0.84" stroke-width="4" stroke-miterlimit="10" stroke-linecap="round"/>
<path d="M110.193 121.834L101.789 90.5197L133.153 82.1289" stroke="#0796FE" stroke-opacity="0.84" stroke-width="4" stroke-miterlimit="10" stroke-linecap="round"/>
<path d="M122.751 129.406L114.241 97.6971L146 89.2007" stroke="#0796FE" stroke-opacity="0.84" stroke-width="4" stroke-miterlimit="10" stroke-linecap="round"/>
</svg>
